<svg xmlns="http://www.w3.org/2000/svg" width="762" height="733" viewBox="0 0 762 733" version="1.1">
	<path d="M 407.500 31.582 C 400.714 41.791, 390.023 54.042, 381.139 61.789 C 374.485 67.591, 373.630 68.058, 372.226 66.654 C 370.161 64.590, 369.458 55.211, 370.929 49.367 C 371.615 46.643, 371.733 44.333, 371.214 43.814 C 369.464 42.064, 356.404 53.018, 327.038 80.864 C 319.867 87.664, 314 92.707, 314 92.071 C 314 90.177, 305.161 81.309, 301.946 79.977 C 299.052 78.779, 298.678 78.980, 288.734 87.077 C 253.931 115.418, 209.087 156.241, 200.673 167.241 C 190.234 180.891, 184.077 196.320, 180.476 217.852 C 177.590 235.113, 179.962 282.362, 183.914 286.314 C 185.440 287.840, 192.264 283.706, 194.500 279.902 C 196.317 276.811, 196.510 274.583, 196.610 255.500 C 196.749 229.049, 198.989 217.796, 207.433 201.133 C 213.715 188.735, 234.610 164.775, 246.757 156.039 C 253.434 151.237, 261.919 147.174, 269 145.388 C 279.165 142.825, 294.923 143.895, 306.500 147.934 C 320.254 152.732, 344.249 159.537, 356.500 162.114 C 365.198 163.944, 370.640 164.427, 382.500 164.422 L 397.500 164.415 411 158.641 C 431.868 149.715, 442.716 147, 457.513 147 C 484.275 147, 504.280 157.247, 521.164 179.602 C 524.155 183.563, 526.718 185.545, 532.622 188.463 C 545.688 194.920, 559.273 209.454, 567.243 225.500 C 574.153 239.411, 575.888 247.396, 576.913 270 C 577.658 286.421, 578.661 291, 581.512 291 C 587.890 291, 591.701 255.999, 587.630 234.818 C 585.325 222.829, 581.766 212.387, 576.115 201.037 C 566.191 181.104, 557.324 169.439, 533.520 145 C 502.117 112.760, 443.671 54, 443.005 54 C 442.653 54, 441.552 56.587, 440.558 59.750 C 436.946 71.239, 436.923 71.259, 435.418 64.121 C 434.678 60.613, 432.040 53.638, 429.555 48.621 C 425.167 39.763, 414.677 23.970, 413.221 24.030 C 412.825 24.046, 410.250 27.445, 407.500 31.582 M 383.636 301.640 C 382.449 310.300, 383.232 325, 384.881 325 C 385.221 325, 385.500 318.700, 385.500 311 C 385.500 296.792, 384.789 293.224, 383.636 301.640 M 348.635 319.073 C 345.094 321.857, 345.094 326.143, 348.635 328.927 C 350.084 330.067, 352.129 331, 353.180 331 C 355.729 331, 360 326.616, 360 324 C 360 321.384, 355.729 317, 353.180 317 C 352.129 317, 350.084 317.933, 348.635 319.073 M 411.637 319.506 C 408.958 322.185, 408.651 325.055, 410.743 327.870 C 414.692 333.183, 423 330.988, 423 324.632 C 423 322.684, 422.244 320.626, 421.171 319.655 C 418.888 317.589, 413.636 317.507, 411.637 319.506 M 182.658 415.841 C 176.106 422.443, 175.880 422.836, 176.185 427.091 C 176.459 430.921, 176.826 431.546, 178.985 431.850 C 180.795 432.105, 182.176 431.354, 184.072 429.083 L 186.675 425.965 186.588 430.170 C 186.511 433.845, 186.811 434.451, 188.967 434.975 C 191.374 435.560, 191.597 436.473, 198.234 472.971 C 201.974 493.539, 205.198 510.532, 205.399 510.732 C 205.600 510.933, 206.915 510.808, 208.322 510.455 C 210.488 509.912, 210.749 509.470, 210.025 507.567 C 207.983 502.194, 194.993 430.875, 195.610 428.419 L 196.268 425.796 198.232 428.898 C 201.368 433.851, 206.990 432.081, 205.608 426.575 C 205.026 424.254, 205.178 424.155, 208.497 424.693 C 211.464 425.175, 211.998 424.974, 211.986 423.381 C 211.949 418.231, 210.947 417.324, 200.670 413.129 C 195.076 410.846, 190.263 408.983, 189.973 408.989 C 189.683 408.995, 186.392 412.078, 182.658 415.841 M 220.570 422.678 C 220.206 423.627, 220.594 425.022, 221.463 425.892 C 222.846 427.274, 223.164 427.264, 224.637 425.792 C 225.537 424.892, 226.001 423.445, 225.668 422.578 C 224.866 420.488, 221.384 420.556, 220.570 422.678 M 162.359 433.507 C 162.006 434.427, 162.416 435.844, 163.286 436.714 C 165.410 438.838, 168.227 437.621, 167.820 434.754 C 167.426 431.977, 163.307 431.037, 162.359 433.507 M 519.189 442.041 C 484.965 474.828, 438.821 494.408, 390.513 496.639 C 339.338 499.003, 285.004 478.659, 247.853 443.225 L 240.206 435.931 237.885 439.716 C 236.608 441.797, 229.319 449.934, 221.685 457.797 C 210.421 469.401, 207.907 472.510, 208.337 474.297 C 208.628 475.509, 209.370 479.425, 209.985 483 C 210.600 486.575, 211.337 490.292, 211.623 491.261 C 211.929 492.299, 216.395 495.028, 222.502 497.909 C 233.462 503.079, 251 514.435, 251 516.362 C 251 516.992, 250.097 520.655, 248.993 524.503 C 247.068 531.214, 247.053 531.802, 248.624 538.887 C 252.306 555.495, 246.996 573.922, 236.722 580.194 C 234.644 581.462, 232.169 583.087, 231.222 583.805 C 229.717 584.946, 229.775 584.977, 231.684 584.055 C 234.890 582.506, 235.158 582.686, 234.813 586.160 C 234.513 589.190, 234.316 589.319, 230.022 589.313 C 226.473 589.309, 225.437 588.913, 225.022 587.404 C 224.559 585.714, 223.824 585.566, 218.500 586.082 C 215.200 586.402, 213.963 586.739, 215.750 586.832 C 220.028 587.053, 220.161 589.998, 215.977 591.850 C 212.934 593.197, 210 597.476, 210 600.567 C 210 601.805, 210.642 602.110, 212.500 601.755 C 214.325 601.406, 215.006 601.712, 215.022 602.889 C 215.034 603.775, 215.877 606.334, 216.895 608.576 C 219.093 613.415, 223.219 615.557, 228.454 614.575 C 232.595 613.798, 238 609.543, 238 607.060 C 238 605.502, 238.591 605.392, 243.126 606.109 C 245.946 606.555, 248.450 607.116, 248.690 607.357 C 248.931 607.598, 248.717 610.054, 248.215 612.817 C 247.174 618.545, 248.258 622.769, 252.359 628.966 C 256.162 634.713, 256.327 636.754, 253.624 644.666 C 248.628 659.293, 247.349 661.244, 240.609 664.526 C 228.642 670.352, 233.654 671.331, 265.966 669.477 C 295.035 667.809, 342.093 667.591, 365 669.018 C 373.525 669.549, 399.175 670.204, 422 670.473 C 444.825 670.743, 480.150 671.472, 500.500 672.095 C 539.092 673.275, 544.837 672.919, 542.018 669.521 C 540.549 667.752, 532.459 664.671, 524.833 662.977 L 519.165 661.719 517.083 656.007 C 514.669 649.386, 514.480 644.533, 516.500 641 C 518.360 637.747, 518.342 633.681, 516.440 627.500 C 515.360 623.988, 515.099 620.715, 515.566 616.500 C 516.440 608.590, 517.502 606.672, 520.666 607.277 C 522.967 607.716, 522.895 607.537, 519.700 604.904 C 514.820 600.882, 510.269 593.355, 508.851 586.961 C 508.185 583.957, 506.761 580.221, 505.687 578.659 C 502.944 574.669, 502.380 568.100, 504.437 564.121 C 506.418 560.292, 511.424 557.009, 515.290 557.004 C 516.825 557.002, 519.392 556.031, 520.994 554.847 C 523.447 553.033, 523.737 552.377, 522.834 550.690 C 518.730 543.021, 511.048 513.349, 512.542 510.932 C 514.059 508.478, 534.266 498.431, 546.335 494.130 C 553.913 491.430, 560.386 488.948, 560.719 488.614 C 561.052 488.281, 560.802 486.860, 560.162 485.457 C 559.523 484.054, 558.990 481.465, 558.978 479.703 C 558.942 474.400, 555.734 469.023, 546.211 458.303 C 541.229 452.695, 535.267 444.932, 532.962 441.053 C 530.658 437.174, 528.486 434.018, 528.136 434.039 C 527.786 434.061, 523.760 437.662, 519.189 442.041 M 341.192 435.771 C 336.948 438.751, 346.121 448.247, 366 461.450 C 385.496 474.399, 384.055 473.827, 388.517 470.394 C 390.586 468.802, 396.785 464.753, 402.294 461.396 C 413.413 454.620, 428.772 440.372, 426.936 438.536 C 425.464 437.064, 410.987 436.224, 374.500 435.494 C 355.532 435.114, 341.967 435.227, 341.192 435.771 M 348.700 438.676 C 348.387 439.183, 349.128 441.375, 350.347 443.549 C 352.455 447.306, 352.803 447.500, 357.431 447.500 C 362.194 447.500, 362.328 447.416, 363.653 443.587 C 364.398 441.435, 364.789 439.456, 364.522 439.188 C 363.568 438.235, 349.259 437.771, 348.700 438.676 M 366.975 440.046 C 366.373 441.172, 366.020 443.534, 366.190 445.296 L 366.500 448.500 373.842 448.796 C 382.673 449.151, 384 448.313, 384 442.378 L 384 438 376.035 438 C 369.034 438, 367.938 438.248, 366.975 440.046 M 386.429 439.324 C 386.127 440.111, 386.020 442.947, 386.190 445.627 L 386.500 450.500 392.837 450.800 C 396.523 450.974, 399.744 450.628, 400.535 449.971 C 401.963 448.786, 405.574 440.205, 404.894 439.611 C 404.677 439.421, 400.558 438.957, 395.739 438.580 C 388.608 438.021, 386.876 438.160, 386.429 439.324 M 406.133 443.944 C 404.831 446.621, 404.035 449.247, 404.364 449.780 C 405.126 451.012, 413.394 449.538, 416.015 447.702 C 418.992 445.617, 422.197 441.127, 421.506 440.010 C 421.163 439.454, 418.096 439.017, 414.691 439.039 L 408.500 439.078 406.133 443.944 M 193.872 516.750 C 192.629 518.336, 192.664 518.371, 194.250 517.128 C 195.916 515.821, 196.445 515, 195.622 515 C 195.415 515, 194.627 515.788, 193.872 516.750 M 189.459 523.067 C 189.096 523.653, 189.014 524.348, 189.276 524.610 C 189.538 524.872, 190.019 524.392, 190.345 523.543 C 191.021 521.781, 190.445 521.471, 189.459 523.067 M 186.158 535 C 186.158 536.375, 186.385 536.938, 186.662 536.250 C 186.940 535.563, 186.940 534.438, 186.662 533.750 C 186.385 533.063, 186.158 533.625, 186.158 535 M 185.310 546.500 C 185.315 549.800, 185.502 551.029, 185.725 549.232 C 185.947 547.435, 185.943 544.735, 185.715 543.232 C 185.486 541.729, 185.304 543.200, 185.310 546.500 M 186.079 556.583 C 186.127 557.748, 186.364 557.985, 186.683 557.188 C 186.972 556.466, 186.936 555.603, 186.604 555.271 C 186.272 554.939, 186.036 555.529, 186.079 556.583 M 193 573.378 C 193 573.585, 193.787 574.373, 194.750 575.128 C 196.336 576.371, 196.371 576.336, 195.128 574.750 C 193.821 573.084, 193 572.555, 193 573.378 M 573.272 580 C 573.272 582.475, 573.467 583.487, 573.706 582.250 C 573.944 581.013, 573.944 578.987, 573.706 577.750 C 573.467 576.513, 573.272 577.525, 573.272 580 M 204.441 583.445 C 205.509 584.300, 206.821 585, 207.358 585 C 208.628 585, 208.061 584.538, 205 583.080 C 202.643 581.958, 202.611 581.978, 204.441 583.445 M 563.437 603.250 L 560.500 606.500 563.750 603.563 C 565.538 601.948, 567 600.485, 567 600.313 C 567 599.540, 566.175 600.221, 563.437 603.250 M 535.750 612.662 C 536.438 612.940, 537.563 612.940, 538.250 612.662 C 538.938 612.385, 538.375 612.158, 537 612.158 C 535.625 612.158, 535.063 612.385, 535.750 612.662 M 541.250 612.689 C 542.212 612.941, 543.788 612.941, 544.750 612.689 C 545.712 612.438, 544.925 612.232, 543 612.232 C 541.075 612.232, 540.288 612.438, 541.250 612.689 " stroke="none" fill="black" fill-rule="evenodd"/>
</svg>