<?xml version="1.0"?>
<svg xmlns="http://www.w3.org/2000/svg" viewBox="0 0 50 50">
    <path d="M 25 2 C 15.059 2 7 4.686 7 8 L 7 25 C 7 30.083 12.417 44.083 25 47 C 37.583 44.083 43 30.083 43 25 L 43 8 C 43 4.686 34.941 2 25 2 z M 25 4 C 35.499 4 41 6.972 41 8 L 41 25 C 41 29.13776 36.669409 40.522745 27 44.294922 L 27 38 L 23 38 L 23 44.294922 C 13.330591 40.522745 9 29.13776 9 25 L 9 8 C 9 6.972 14.501 4 25 4 z M 17 11 C 15.004 11 12.855 11.877 11 15 C 12.953 13.64 14.613 13 16 13 C 18.688 13 20.026453 16.149547 20.439453 16.560547 C 21.024453 17.146547 21.974547 17.146547 22.560547 16.560547 C 23.146547 15.975547 23.146547 15.025453 22.560547 14.439453 C 22.194547 14.074453 20.438 11 17 11 z M 33 11 C 29.562 11 27.805453 14.074453 27.439453 14.439453 C 26.853453 15.025453 26.853453 15.975547 27.439453 16.560547 C 28.025453 17.146547 28.975547 17.146547 29.560547 16.560547 C 29.973547 16.149547 31.313 13 34 13 C 35.387 13 37.047 13.64 39 15 C 37.145 11.877 34.996 11 33 11 z M 16 17 C 14.36 17 12.918 17.594 12 18.5 C 12.918 19.406 14.36 20 16 20 C 17.64 20 19.082 19.406 20 18.5 C 19.082 17.594 17.64 17 16 17 z M 34 17 C 32.36 17 30.918 17.594 30 18.5 C 30.918 19.406 32.36 20 34 20 C 35.64 20 37.082 19.406 38 18.5 C 37.082 17.594 35.64 17 34 17 z M 11 26 L 16 34 L 23 34 L 25 32 L 27 34 L 34 34 L 39 26 L 33 31 L 29 31 L 26 28 L 24 28 L 21 31 L 17 31 L 11 26 z"/>
</svg>
