<?xml version="1.0" encoding="UTF-8" standalone="no"?>
<svg
   xmlns:dc="http://purl.org/dc/elements/1.1/"
   xmlns:cc="http://creativecommons.org/ns#"
   xmlns:rdf="http://www.w3.org/1999/02/22-rdf-syntax-ns#"
   xmlns:svg="http://www.w3.org/2000/svg"
   xmlns="http://www.w3.org/2000/svg"
   xmlns:sodipodi="http://sodipodi.sourceforge.net/DTD/sodipodi-0.dtd"
   xmlns:inkscape="http://www.inkscape.org/namespaces/inkscape"
   width="177.333"
   height="85.333"
   viewBox="0 0 1847 889"
   shape-rendering="geometricPrecision"
   text-rendering="geometricPrecision"
   image-rendering="optimizeQuality"
   fill-rule="evenodd"
   clip-rule="evenodd"
   version="1.1"
   id="svg835"
   sodipodi:docname="elasticventures_text_svg.svg"
   inkscape:version="0.92.4 (5da689c313, 2019-01-14)">
  <metadata
     id="metadata839">
    <rdf:RDF>
      <cc:Work
         rdf:about="">
        <dc:format>image/svg+xml</dc:format>
        <dc:type
           rdf:resource="http://purl.org/dc/dcmitype/StillImage" />
        <dc:title></dc:title>
      </cc:Work>
    </rdf:RDF>
  </metadata>
  <sodipodi:namedview
     pagecolor="#ffffff"
     bordercolor="#666666"
     borderopacity="1"
     objecttolerance="10"
     gridtolerance="10"
     guidetolerance="10"
     inkscape:pageopacity="0"
     inkscape:pageshadow="2"
     inkscape:window-width="1920"
     inkscape:window-height="1027"
     id="namedview837"
     showgrid="false"
     inkscape:zoom="1.6184242"
     inkscape:cx="68.894177"
     inkscape:cy="190.9589"
     inkscape:window-x="2680"
     inkscape:window-y="-8"
     inkscape:window-maximized="1"
     inkscape:current-layer="Layer_x0020_1" />
  <defs
     id="defs826">
    <style
       id="style824">.fil0{fill:#282828;fill-rule:nonzero}</style>
  </defs>
  <g
     id="Layer_x0020_1">
    <path
       d="m 17,518.0835 c -2,0 -4,-1 -6,-2 -2,-1 -4,-3 -6,-5 -2,-2 -3,-5 -4,-8 -1,-3 -2,-7 -2,-11 v -18 c 0,-4 1,-6 2,-7 1,-1 4,-2 7,-2 h 96 c 2,0 4,1 5,3 1,2 2,4 2,7 0,3 -1,5 -2,7 -1,2 -3,3 -5,3 H 13 v 10 c 0,1 0,3 1,4 1,1 2,1 3,1 h 90 c 2,0 4,1 5,3 1,2 2,4 2,7 0,3 -1,5 -2,7 -1,2 -3,3 -5,3 H 17 Z"
       id="path5123"
       inkscape:connector-curvature="0" />
    <path
       d="m 0,440.0835 c 0,-3 1,-5 2,-7 1,-2 3,-3 5,-3 h 101 c 2,0 4,1 5,3 1,2 2,4 2,7 0,3 -1,5 -2,7 -1,2 -3,3 -5,3 H 7 c -2,0 -4,-1 -5,-3 -1,-2 -2,-4 -2,-7 z"
       id="path5121"
       inkscape:connector-curvature="0" />
    <path
       d="m 141,516.0835 c -2,-1 -4,-3 -6,-6 -2,-2 -3,-5 -4,-8 -1,-3 -2,-7 -2,-10 v -51 c 0,-3 1,-5 2,-7 1,-2 3,-3 5,-3 2,0 3,1 5,3 1,2 2,4 2,7 v 51 c 0,2 1,4 2,5 1,1 2,2 4,2 h 85 c 2,0 4,1 5,3 1,2 2,4 2,7 0,3 -1,5 -2,7 -1,2 -3,3 -5,3 h -85 c -3,0 -5,-1 -8,-2 z"
       id="path5119"
       inkscape:connector-curvature="0" />
    <path
       d="m 267,514.0835 c -1,2 -3,4 -5,4 -2,0 -4,-1 -5,-3 -1,-2 -2,-4 -2,-7 0,-2 0,-4 1,-6 l 35,-66 c 2,-3 4,-6 6,-8 3,-2 5,-3 9,-3 3,0 6,1 8,3 3,2 5,4 6,7 l 35,65 c 1,1 1,2 1,3 0,1 1,2 1,4 0,3 -1,5 -2,7 -1,2 -3,3 -5,3 -2,0 -4,-1 -5,-4 l -33,-62 c -1,-1 -1,-2 -3,-4 -1,-1 -2,-2 -3,-2 -1,0 -2,1 -3,2 -1,1 -2,2 -2,4 l -33,63 z"
       id="path5117"
       inkscape:connector-curvature="0" />
    <path
       d="m 382,482.0835 c -2,-1 -4,-3 -6,-6 -2,-2 -3,-5 -4,-8 -1,-3 -2,-7 -2,-10 0,-4 0,-7 2,-10 1,-3 2,-6 4,-8 l 6,-6 c 2,-1 5,-2 7,-2 h 86 c 2,0 4,1 5,3 1,2 2,4 2,7 0,3 -1,5 -2,7 -1,2 -3,3 -5,3 h -87 c -1,0 -3,1 -4,2 -1,1 -2,3 -2,5 0,2 1,4 2,5 1,1 2,2 4,2 h 79 c 3,0 5,1 7,2 2,1 4,3 6,6 2,2 3,5 4,9 1,3 1,7 1,11 0,4 0,7 -1,10 -1,3 -2,6 -4,8 l -6,6 c -2,1 -5,2 -7,2 h -86 c -2,0 -4,-1 -5,-3 -1,-2 -2,-4 -2,-7 0,-3 1,-5 2,-7 1,-2 3,-3 5,-3 h 87 c 1,0 3,-1 4,-2 1,-1 2,-3 2,-5 0,-2 -1,-4 -2,-5 -1,-1 -2,-2 -4,-2 h -79 c -3,0 -5,-1 -7,-2 z"
       id="path5115"
       inkscape:connector-curvature="0" />
    <path
       d="m 611,433.0835 c 1,2 2,4 2,7 0,3 -1,5 -2,7 -1,2 -3,3 -5,3 h -42 v 59 c 0,3 -1,5 -2,7 -1,2 -3,3 -5,3 -2,0 -4,-1 -5,-3 -1,-2 -2,-4 -2,-7 v -59 h -43 c -2,0 -3,-1 -4,-3 -1,-2 -2,-4 -2,-7 0,-3 1,-5 2,-7 1,-2 3,-3 5,-3 h 98 c 2,0 4,1 5,3 z"
       id="path5113"
       inkscape:connector-curvature="0" />
    <path
       d="m 639,515.0835 c -1,2 -3,3 -5,3 -2,0 -4,-1 -5,-3 -1,-2 -2,-4 -2,-7 v -68 c 0,-3 1,-5 2,-7 1,-2 3,-3 5,-3 2,0 4,1 5,3 1,2 2,4 2,7 v 68 c 0,3 -1,5 -2,7 z"
       id="path5111"
       inkscape:connector-curvature="0" />
    <path
       d="m 655,474.0835 c 0,-5 1,-10 2,-15 1,-5 3,-10 5,-14 2,-4 5,-8 8,-10 3,-3 7,-4 11,-4 h 83 c 2,0 4,1 5,3 1,2 2,4 2,7 0,3 -1,5 -2,7 -1,2 -3,3 -5,3 h -80 c -3,0 -6,1 -8,3 -2,2 -4,4 -5,6 -1,2 -2,5 -2,8 0,3 -1,6 -1,8 0,2 0,5 1,8 0,3 1,6 2,8 1,2 3,4 5,6 2,2 5,3 8,3 h 80 c 2,0 4,1 5,3 1,2 2,4 2,7 0,3 -1,5 -2,7 -1,2 -3,3 -5,3 h -84 c -4,0 -7,-1 -10,-4 -3,-3 -6,-6 -8,-10 -2,-4 -4,-9 -5,-14 -1,-5 -2,-10 -2,-15 z"
       id="path5109"
       inkscape:connector-curvature="0" />
    <path
       d="m 939,434.0835 c 1,-2 3,-4 5,-4 2,0 4,1 5,3 1,2 2,4 2,7 0,2 0,4 -1,6 l -34,65 c -2,3 -4,6 -6,8 -3,2 -5,3 -8,3 -3,0 -6,-1 -8,-3 -3,-2 -5,-4 -6,-7 l -35,-65 c -1,-1 -1,-2 -1,-3 0,-1 -1,-2 -1,-4 0,-3 1,-5 2,-7 1,-2 3,-3 5,-3 2,0 4,1 5,4 l 33,62 c 1,1 1,2 2,4 1,1 2,2 3,2 1,0 2,-1 3,-2 1,-1 2,-2 2,-4 l 33,-63 z"
       id="path5107"
       inkscape:connector-curvature="0" />
    <path
       d="m 983,518.0835 c -2,0 -4,-1 -6,-2 -2,-1 -4,-3 -6,-5 -2,-2 -3,-5 -4,-8 -1,-3 -2,-7 -2,-11 v -18 c 0,-4 1,-6 2,-7 1,-1 4,-2 7,-2 h 96 c 2,0 4,1 5,3 1,2 2,4 2,7 0,3 -1,5 -2,7 -1,2 -3,3 -5,3 h -91 v 10 c 0,1 0,3 1,4 1,1 2,1 3,1 h 90 c 2,0 4,1 5,3 1,2 2,4 2,7 0,3 -1,5 -2,7 -1,2 -3,3 -5,3 h -90 z"
       id="path5105"
       inkscape:connector-curvature="0" />
    <path
       d="m 966,440.0835 c 0,-3 1,-5 2,-7 1,-2 3,-3 5,-3 h 101 c 2,0 4,1 5,3 1,2 2,4 2,7 0,3 -1,5 -2,7 -1,2 -3,3 -5,3 H 973 c -2,0 -4,-1 -5,-3 -1,-2 -2,-4 -2,-7 z"
       id="path5103"
       inkscape:connector-curvature="0" />
    <path
       d="m 1194,433.0835 c 1,-2 3,-3 5,-3 2,0 4,1 5,3 1,2 2,4 2,7 v 58 c 0,5 -1,10 -4,14 -3,4 -6,6 -10,6 -1,0 -3,0 -4,-1 -1,-1 -2,-1 -3,-2 l -65,-56 c -2,-1 -3,-3 -4,-4 -1,-1 -2,-1 -3,-1 -1,0 -2,1 -3,4 0,3 -1,6 -1,11 v 39 c 0,3 -1,5 -2,7 -1,2 -3,3 -5,3 -2,0 -4,-1 -5,-3 -1,-2 -2,-4 -2,-7 v -58 c 0,-5 1,-10 4,-14 3,-4 6,-6 10,-6 1,0 3,0 4,1 1,1 2,1 3,2 l 65,56 c 2,1 3,3 4,4 1,1 2,1 3,1 1,0 2,-1 3,-4 0,-3 1,-6 1,-11 v -40 c 0,-3 1,-5 2,-7 z"
       id="path5101"
       inkscape:connector-curvature="0" />
    <path
       d="m 1329,433.0835 c 1,2 2,4 2,7 0,3 -1,5 -2,7 -1,2 -3,3 -5,3 h -42 v 59 c 0,3 -1,5 -2,7 -1,2 -3,3 -5,3 -2,0 -4,-1 -5,-3 -1,-2 -2,-4 -2,-7 v -59 h -43 c -2,0 -3,-1 -4,-3 -1,-2 -2,-4 -2,-7 0,-3 1,-5 2,-7 1,-2 3,-3 5,-3 h 98 c 2,0 4,1 5,3 z"
       id="path5099"
       inkscape:connector-curvature="0" />
    <path
       d="m 1360,482.0835 c 0,3 1,6 2,8 1,2 3,4 5,6 2,2 5,3 8,3 h 57 c 3,0 6,-1 8,-3 2,-2 4,-4 5,-6 1,-2 2,-5 2,-8 0,-3 1,-6 1,-8 v -34 c 0,-3 1,-5 2,-7 1,-2 3,-3 5,-3 2,0 4,1 5,3 1,2 2,4 2,7 v 34 c 0,5 -1,10 -2,15 -1,5 -3,10 -5,14 -2,4 -5,8 -8,10 -3,3 -7,4 -11,4 h -65 c -4,0 -7,-2 -10,-5 -3,-3 -6,-6 -8,-10 -2,-4 -4,-9 -5,-14 -1,-5 -2,-10 -2,-15 v -34 c 0,-3 1,-5 2,-7 1,-2 3,-3 5,-3 2,0 4,1 5,3 1,2 2,4 2,7 v 34 c 0,2 0,5 1,8 z"
       id="path5097"
       inkscape:connector-curvature="0" />
    <path
       d="m 1575,491.0835 c 3,3 5,5 8,9 1,1 2,2 3,4 1,1 1,3 1,5 0,3 -1,5 -2,7 -1,2 -3,3 -5,3 -2,0 -3,-1 -5,-3 l -12,-12 c -4,-4 -8,-7 -13,-10 -4,-3 -9,-5 -14,-7 -5,-2 -10,-3 -15,-3 h -28 c -1,0 -2,1 -3,2 -1,1 -1,3 -1,5 v 17 c 0,3 -1,5 -2,7 -1,2 -3,3 -5,3 -2,0 -4,-1 -5,-3 -1,-2 -2,-4 -2,-7 v -19 c 0,-3 0,-6 1,-9 1,-3 2,-6 4,-8 2,-2 3,-4 5,-5 2,-1 4,-2 7,-2 h 75 c 1,0 3,-1 4,-2 1,-1 2,-3 2,-5 0,-2 -1,-4 -2,-5 -1,-1 -2,-2 -4,-2 h -86 c -2,0 -4,-1 -5,-3 -1,-2 -2,-4 -2,-7 0,-3 1,-5 2,-7 1,-2 3,-3 5,-3 h 85 c 3,0 5,1 7,2 2,1 4,3 6,6 2,2 3,5 4,8 1,3 2,7 2,10 0,4 -1,7 -2,10 -1,3 -2,6 -4,8 l -6,6 c -2,1 -5,2 -7,2 h -1 c 3,2 5,5 8,7 z"
       id="path5095"
       inkscape:connector-curvature="0" />
    <path
       d="m 1618,518.0835 c -2,0 -4,-1 -6,-2 -2,-1 -4,-3 -6,-5 -2,-2 -3,-5 -4,-8 -1,-3 -2,-7 -2,-11 v -18 c 0,-4 1,-6 2,-7 1,-1 4,-2 7,-2 h 96 c 2,0 4,1 5,3 1,2 2,4 2,7 0,3 -1,5 -2,7 -1,2 -3,3 -5,3 h -91 v 10 c 0,1 0,3 1,4 1,1 2,1 3,1 h 90 c 2,0 4,1 5,3 1,2 2,4 2,7 0,3 -1,5 -2,7 -1,2 -3,3 -5,3 h -90 z"
       id="path5093"
       inkscape:connector-curvature="0" />
    <path
       d="m 1601,440.0835 c 0,-3 1,-5 2,-7 1,-2 3,-3 5,-3 h 101 c 2,0 3,1 5,3 1,2 2,4 2,7 0,3 -1,5 -2,7 -1,2 -3,3 -5,3 h -101 c -2,0 -4,-1 -5,-3 -1,-2 -2,-4 -2,-7 z"
       id="path5091"
       inkscape:connector-curvature="0" />
    <path
       d="m 1741,482.0835 c -2,-1 -4,-3 -6,-6 -2,-2 -3,-5 -4,-8 -1,-3 -1,-7 -1,-10 0,-4 0,-7 1,-10 1,-3 2,-6 4,-8 l 6,-6 c 2,-1 5,-2 7,-2 h 86 c 2,0 4,1 5,3 1,2 2,4 2,7 0,3 -1,5 -2,7 -1,2 -3,3 -5,3 h -87 c -1,0 -3,1 -4,2 -1,1 -2,3 -2,5 0,2 1,4 2,5 1,1 2,2 4,2 h 79 c 3,0 5,1 8,2 2,1 4,3 6,6 2,2 3,5 4,9 1,3 1,7 1,11 0,4 -1,7 -1,10 -1,3 -2,6 -4,8 l -6,6 c -2,1 -5,2 -8,2 h -86 c -2,0 -4,-1 -5,-3 -1,-2 -2,-4 -2,-7 0,-3 1,-5 2,-7 1,-2 3,-3 5,-3 h 87 c 1,0 3,-1 4,-2 1,-1 2,-3 2,-5 0,-2 -1,-4 -2,-5 -1,-1 -2,-2 -4,-2 h -79 c -3,0 -5,-1 -7,-2 z"
       id="path830"
       inkscape:connector-curvature="0" />
  </g>
</svg>
