<svg xmlns="http://www.w3.org/2000/svg" width="177.333" height="85.333" viewBox="0 0 1847 889" shape-rendering="geometricPrecision" text-rendering="geometricPrecision" image-rendering="optimizeQuality" fill-rule="evenodd" clip-rule="evenodd"><defs><style>.fil0{fill:#282828;fill-rule:nonzero}</style></defs><g id="Layer_x0020_1"><path class="fil0" d="M139 731c-17 0-33-5-50-15s-32-24-44-42c-13-18-24-40-32-66S0 553 0 521V377c0-29 6-48 18-58s30-14 55-14h764c15 0 28 7 39 22s16 33 16 55c0 21-5 40-16 55s-24 22-39 22H109v79c0 11 3 20 10 28 6 8 15 12 26 12h718c15 0 28 7 39 22s16 33 16 55c0 21-5 40-16 55s-24 22-39 22H140z"/><path class="fil0" d="M1053 154H55c-15 0-28-7-39-22S0 99 0 77c0-21 5-40 16-55S40 0 55 0h1031c18 0 33 10 43 30l265 499c5 9 12 18 20 28s16 15 24 15 17-5 25-15 14-20 19-28l268-500c11-19 25-29 42-29 15 0 34 7 45 22s16 33 16 55c0 19-4 35-11 47l-1 2-276 523c-14 25-31 45-52 60-21 16-50 23-74 23-23 0-55-7-75-21s-37-33-51-58l-261-499zM17 885c-2 0-4-1-6-2s-4-3-6-5-3-5-4-8-2-7-2-11v-18c0-4 1-6 2-7s4-2 7-2h96c2 0 4 1 5 3s2 4 2 7-1 5-2 7-3 3-5 3H13v10c0 1 0 3 1 4s2 1 3 1h90c2 0 4 1 5 3s2 4 2 7-1 5-2 7-3 3-5 3H17zM0 807c0-3 1-5 2-7s3-3 5-3h101c2 0 4 1 5 3s2 4 2 7-1 5-2 7-3 3-5 3H7c-2 0-4-1-5-3s-2-4-2-7zM141 883c-2-1-4-3-6-6-2-2-3-5-4-8s-2-7-2-10v-51c0-3 1-5 2-7s3-3 5-3 3 1 5 3c1 2 2 4 2 7v51c0 2 1 4 2 5s2 2 4 2h85c2 0 4 1 5 3s2 4 2 7-1 5-2 7-3 3-5 3h-85c-3 0-5-1-8-2zM267 881c-1 2-3 4-5 4s-4-1-5-3-2-4-2-7c0-2 0-4 1-6l35-66c2-3 4-6 6-8 3-2 5-3 9-3 3 0 6 1 8 3 3 2 5 4 6 7l35 65c1 1 1 2 1 3s1 2 1 4c0 3-1 5-2 7s-3 3-5 3-4-1-5-4l-33-62c-1-1-1-2-3-4-1-1-2-2-3-2s-2 1-3 2-2 2-2 4l-33 63zM382 849c-2-1-4-3-6-6-2-2-3-5-4-8s-2-7-2-10c0-4 0-7 2-10 1-3 2-6 4-8l6-6c2-1 5-2 7-2h86c2 0 4 1 5 3s2 4 2 7-1 5-2 7-3 3-5 3h-87c-1 0-3 1-4 2s-2 3-2 5 1 4 2 5 2 2 4 2h79c3 0 5 1 7 2s4 3 6 6c2 2 3 5 4 9 1 3 1 7 1 11s0 7-1 10-2 6-4 8l-6 6c-2 1-5 2-7 2h-86c-2 0-4-1-5-3s-2-4-2-7 1-5 2-7 3-3 5-3h87c1 0 3-1 4-2s2-3 2-5-1-4-2-5-2-2-4-2h-79c-3 0-5-1-7-2zM611 800c1 2 2 4 2 7s-1 5-2 7-3 3-5 3h-42v59c0 3-1 5-2 7s-3 3-5 3-4-1-5-3-2-4-2-7v-59h-43c-2 0-3-1-4-3s-2-4-2-7 1-5 2-7 3-3 5-3h98c2 0 4 1 5 3zM639 882c-1 2-3 3-5 3s-4-1-5-3-2-4-2-7v-68c0-3 1-5 2-7s3-3 5-3 4 1 5 3 2 4 2 7v68c0 3-1 5-2 7zM655 841c0-5 1-10 2-15s3-10 5-14 5-8 8-10c3-3 7-4 11-4h83c2 0 4 1 5 3s2 4 2 7-1 5-2 7-3 3-5 3h-80c-3 0-6 1-8 3s-4 4-5 6-2 5-2 8-1 6-1 8 0 5 1 8c0 3 1 6 2 8s3 4 5 6 5 3 8 3h80c2 0 4 1 5 3s2 4 2 7-1 5-2 7-3 3-5 3h-84c-4 0-7-1-10-4s-6-6-8-10-4-9-5-14-2-10-2-15zM939 801c1-2 3-4 5-4s4 1 5 3 2 4 2 7c0 2 0 4-1 6l-34 65c-2 3-4 6-6 8-3 2-5 3-8 3s-6-1-8-3c-3-2-5-4-6-7l-35-65c-1-1-1-2-1-3s-1-2-1-4c0-3 1-5 2-7s3-3 5-3 4 1 5 4l33 62c1 1 1 2 2 4 1 1 2 2 3 2s2-1 3-2 2-2 2-4l33-63zM983 885c-2 0-4-1-6-2s-4-3-6-5-3-5-4-8-2-7-2-11v-18c0-4 1-6 2-7s4-2 7-2h96c2 0 4 1 5 3s2 4 2 7-1 5-2 7-3 3-5 3h-91v10c0 1 0 3 1 4s2 1 3 1h90c2 0 4 1 5 3s2 4 2 7-1 5-2 7-3 3-5 3h-90zm-17-78c0-3 1-5 2-7s3-3 5-3h101c2 0 4 1 5 3s2 4 2 7-1 5-2 7-3 3-5 3H973c-2 0-4-1-5-3s-2-4-2-7zM1194 800c1-2 3-3 5-3s4 1 5 3 2 4 2 7v58c0 5-1 10-4 14s-6 6-10 6c-1 0-3 0-4-1s-2-1-3-2l-65-56c-2-1-3-3-4-4s-2-1-3-1-2 1-3 4c0 3-1 6-1 11v39c0 3-1 5-2 7s-3 3-5 3-4-1-5-3-2-4-2-7v-58c0-5 1-10 4-14s6-6 10-6c1 0 3 0 4 1s2 1 3 2l65 56c2 1 3 3 4 4s2 1 3 1 2-1 3-4c0-3 1-6 1-11v-40c0-3 1-5 2-7zM1329 800c1 2 2 4 2 7s-1 5-2 7-3 3-5 3h-42v59c0 3-1 5-2 7s-3 3-5 3-4-1-5-3-2-4-2-7v-59h-43c-2 0-3-1-4-3s-2-4-2-7 1-5 2-7 3-3 5-3h98c2 0 4 1 5 3zM1360 849c0 3 1 6 2 8s3 4 5 6 5 3 8 3h57c3 0 6-1 8-3s4-4 5-6 2-5 2-8 1-6 1-8v-34c0-3 1-5 2-7s3-3 5-3 4 1 5 3 2 4 2 7v34c0 5-1 10-2 15s-3 10-5 14-5 8-8 10c-3 3-7 4-11 4h-65c-4 0-7-2-10-5s-6-6-8-10-4-9-5-14-2-10-2-15v-34c0-3 1-5 2-7s3-3 5-3 4 1 5 3 2 4 2 7v34c0 2 0 5 1 8zM1575 858c3 3 5 5 8 9 1 1 2 2 3 4 1 1 1 3 1 5 0 3-1 5-2 7s-3 3-5 3-3-1-5-3l-12-12c-4-4-8-7-13-10-4-3-9-5-14-7s-10-3-15-3h-28c-1 0-2 1-3 2s-1 3-1 5v17c0 3-1 5-2 7s-3 3-5 3-4-1-5-3-2-4-2-7v-19c0-3 0-6 1-9s2-6 4-8 3-4 5-5 4-2 7-2h75c1 0 3-1 4-2s2-3 2-5-1-4-2-5-2-2-4-2h-86c-2 0-4-1-5-3s-2-4-2-7 1-5 2-7 3-3 5-3h85c3 0 5 1 7 2s4 3 6 6c2 2 3 5 4 8s2 7 2 10c0 4-1 7-2 10s-2 6-4 8l-6 6c-2 1-5 2-7 2h-1c3 2 5 5 8 7zM1618 885c-2 0-4-1-6-2s-4-3-6-5-3-5-4-8-2-7-2-11v-18c0-4 1-6 2-7s4-2 7-2h96c2 0 4 1 5 3s2 4 2 7-1 5-2 7-3 3-5 3h-91v10c0 1 0 3 1 4s2 1 3 1h90c2 0 4 1 5 3s2 4 2 7-1 5-2 7-3 3-5 3h-90zm-17-78c0-3 1-5 2-7s3-3 5-3h101c2 0 3 1 5 3 1 2 2 4 2 7s-1 5-2 7-3 3-5 3h-101c-2 0-4-1-5-3s-2-4-2-7zM1741 849c-2-1-4-3-6-6-2-2-3-5-4-8s-1-7-1-10c0-4 0-7 1-10s2-6 4-8l6-6c2-1 5-2 7-2h86c2 0 4 1 5 3s2 4 2 7-1 5-2 7-3 3-5 3h-87c-1 0-3 1-4 2s-2 3-2 5 1 4 2 5 2 2 4 2h79c3 0 5 1 8 2 2 1 4 3 6 6 2 2 3 5 4 9 1 3 1 7 1 11s-1 7-1 10c-1 3-2 6-4 8l-6 6c-2 1-5 2-8 2h-86c-2 0-4-1-5-3s-2-4-2-7 1-5 2-7 3-3 5-3h87c1 0 3-1 4-2s2-3 2-5-1-4-2-5-2-2-4-2h-79c-3 0-5-1-7-2z"/><path fill="none" fill-rule="nonzero" stroke="#282828" stroke-width="13.484" stroke-linecap="round" d="M7 764h1832"/></g></svg>