<?xml version="1.0" encoding="UTF-8"?>
<!DOCTYPE svg PUBLIC "-//W3C//DTD SVG 1.1//EN" "http://www.w3.org/Graphics/SVG/1.1/DTD/svg11.dtd">
<!-- Creator: CorelDRAW X6 -->
<svg xmlns="http://www.w3.org/2000/svg" xml:space="preserve" width="1.84722in" height="0.88889in" version="1.1" style="shape-rendering:geometricPrecision; text-rendering:geometricPrecision; image-rendering:optimizeQuality; fill-rule:evenodd; clip-rule:evenodd"
viewBox="0 0 1847 889"
 xmlns:xlink="http://www.w3.org/1999/xlink">
 <defs>
  <style type="text/css">
   <![CDATA[
    .str0 {stroke:#282828;stroke-width:13.4843;stroke-linecap:round}
    .fil1 {fill:none;fill-rule:nonzero}
    .fil0 {fill:#282828;fill-rule:nonzero}
   ]]>
  </style>
 </defs>
 <g id="Layer_x0020_1">
  <metadata id="CorelCorpID_0Corel-Layer"/>
  <path class="fil0" d="M139 731c-17,0 -33,-5 -50,-15 -17,-10 -32,-24 -44,-42 -13,-18 -24,-40 -32,-66 -8,-26 -13,-55 -13,-87l0 -144c0,-29 6,-48 18,-58 12,-10 30,-14 55,-14l764 0c15,0 28,7 39,22 11,15 16,33 16,55 0,21 -5,40 -16,55 -11,15 -24,22 -39,22l-728 0 0 79c0,11 3,20 10,28 6,8 15,12 26,12l718 0c15,0 28,7 39,22 11,15 16,33 16,55 0,21 -5,40 -16,55 -11,15 -24,22 -39,22l-723 0 0 0z"/>
  <path class="fil0" d="M1053 154l-998 0c-15,0 -28,-7 -39,-22 -11,-15 -16,-33 -16,-55 0,-21 5,-40 16,-55 11,-15 24,-22 39,-22l1031 0c18,0 33,10 43,30l265 499c5,9 12,18 20,28 8,10 16,15 24,15 8,0 17,-5 25,-15 8,-10 14,-20 19,-28l268 -500c11,-19 25,-29 42,-29 15,0 34,7 45,22 11,15 16,33 16,55 0,19 -4,35 -11,47l-1 2 -276 523c-14,25 -31,45 -52,60 -21,16 -50,23 -74,23 -23,0 -55,-7 -75,-21 -20,-14 -37,-33 -51,-58l-261 -499z"/>
  <path class="fil0" d="M17 885c-2,0 -4,-1 -6,-2 -2,-1 -4,-3 -6,-5 -2,-2 -3,-5 -4,-8 -1,-3 -2,-7 -2,-11l0 -18c0,-4 1,-6 2,-7 1,-1 4,-2 7,-2l96 0c2,0 4,1 5,3 1,2 2,4 2,7 0,3 -1,5 -2,7 -1,2 -3,3 -5,3l-91 0 0 10c0,1 0,3 1,4 1,1 2,1 3,1l90 0c2,0 4,1 5,3 1,2 2,4 2,7 0,3 -1,5 -2,7 -1,2 -3,3 -5,3l-90 0 0 0zm-17 -78c0,-3 1,-5 2,-7 1,-2 3,-3 5,-3l101 0c2,0 4,1 5,3 1,2 2,4 2,7 0,3 -1,5 -2,7 -1,2 -3,3 -5,3l-101 0c-2,0 -4,-1 -5,-3 -1,-2 -2,-4 -2,-7z"/>
  <path class="fil0" d="M141 883c-2,-1 -4,-3 -6,-6 -2,-2 -3,-5 -4,-8 -1,-3 -2,-7 -2,-10l0 -51c0,-3 1,-5 2,-7 1,-2 3,-3 5,-3 2,0 3,1 5,3 1,2 2,4 2,7l0 51c0,2 1,4 2,5 1,1 2,2 4,2l85 0c2,0 4,1 5,3 1,2 2,4 2,7 0,3 -1,5 -2,7 -1,2 -3,3 -5,3l-85 0c-3,0 -5,-1 -8,-2z"/>
  <path class="fil0" d="M267 881c-1,2 -3,4 -5,4 -2,0 -4,-1 -5,-3 -1,-2 -2,-4 -2,-7 0,-2 0,-4 1,-6l35 -66c2,-3 4,-6 6,-8 3,-2 5,-3 9,-3 3,0 6,1 8,3 3,2 5,4 6,7l35 65c1,1 1,2 1,3 0,1 1,2 1,4 0,3 -1,5 -2,7 -1,2 -3,3 -5,3 -2,0 -4,-1 -5,-4l-33 -62c-1,-1 -1,-2 -3,-4 -1,-1 -2,-2 -3,-2 -1,0 -2,1 -3,2 -1,1 -2,2 -2,4l-33 63z"/>
  <path class="fil0" d="M382 849c-2,-1 -4,-3 -6,-6 -2,-2 -3,-5 -4,-8 -1,-3 -2,-7 -2,-10 0,-4 0,-7 2,-10 1,-3 2,-6 4,-8 2,-2 4,-4 6,-6 2,-1 5,-2 7,-2l86 0c2,0 4,1 5,3 1,2 2,4 2,7 0,3 -1,5 -2,7 -1,2 -3,3 -5,3l-87 0c-1,0 -3,1 -4,2 -1,1 -2,3 -2,5 0,2 1,4 2,5 1,1 2,2 4,2l79 0c3,0 5,1 7,2 2,1 4,3 6,6 2,2 3,5 4,9 1,3 1,7 1,11 0,4 0,7 -1,10 -1,3 -2,6 -4,8 -2,2 -4,4 -6,6 -2,1 -5,2 -7,2l-86 0c-2,0 -4,-1 -5,-3 -1,-2 -2,-4 -2,-7 0,-3 1,-5 2,-7 1,-2 3,-3 5,-3l87 0c1,0 3,-1 4,-2 1,-1 2,-3 2,-5 0,-2 -1,-4 -2,-5 -1,-1 -2,-2 -4,-2l-79 0c-3,0 -5,-1 -7,-2z"/>
  <path class="fil0" d="M611 800c1,2 2,4 2,7 0,3 -1,5 -2,7 -1,2 -3,3 -5,3l-42 0 0 59c0,3 -1,5 -2,7 -1,2 -3,3 -5,3 -2,0 -4,-1 -5,-3 -1,-2 -2,-4 -2,-7l0 -59 -43 0c-2,0 -3,-1 -4,-3 -1,-2 -2,-4 -2,-7 0,-3 1,-5 2,-7 1,-2 3,-3 5,-3l98 0c2,0 4,1 5,3z"/>
  <path class="fil0" d="M639 882c-1,2 -3,3 -5,3 -2,0 -4,-1 -5,-3 -1,-2 -2,-4 -2,-7l0 -68c0,-3 1,-5 2,-7 1,-2 3,-3 5,-3 2,0 4,1 5,3 1,2 2,4 2,7l0 68c0,3 -1,5 -2,7z"/>
  <path class="fil0" d="M655 841c0,-5 1,-10 2,-15 1,-5 3,-10 5,-14 2,-4 5,-8 8,-10 3,-3 7,-4 11,-4l83 0c2,0 4,1 5,3 1,2 2,4 2,7 0,3 -1,5 -2,7 -1,2 -3,3 -5,3l-80 0c-3,0 -6,1 -8,3 -2,2 -4,4 -5,6 -1,2 -2,5 -2,8 0,3 -1,6 -1,8 0,2 0,5 1,8 0,3 1,6 2,8 1,2 3,4 5,6 2,2 5,3 8,3l80 0c2,0 4,1 5,3 1,2 2,4 2,7 0,3 -1,5 -2,7 -1,2 -3,3 -5,3l-84 0c-4,0 -7,-1 -10,-4 -3,-3 -6,-6 -8,-10 -2,-4 -4,-9 -5,-14 -1,-5 -2,-10 -2,-15z"/>
  <path class="fil0" d="M939 801c1,-2 3,-4 5,-4 2,0 4,1 5,3 1,2 2,4 2,7 0,2 0,4 -1,6l0 0 -34 65c-2,3 -4,6 -6,8 -3,2 -5,3 -8,3 -3,0 -6,-1 -8,-3 -3,-2 -5,-4 -6,-7l-35 -65c-1,-1 -1,-2 -1,-3 0,-1 -1,-2 -1,-4 0,-3 1,-5 2,-7 1,-2 3,-3 5,-3 2,0 4,1 5,4l33 62c1,1 1,2 2,4 1,1 2,2 3,2 1,0 2,-1 3,-2 1,-1 2,-2 2,-4l33 -63z"/>
  <path class="fil0" d="M983 885c-2,0 -4,-1 -6,-2 -2,-1 -4,-3 -6,-5 -2,-2 -3,-5 -4,-8 -1,-3 -2,-7 -2,-11l0 -18c0,-4 1,-6 2,-7 1,-1 4,-2 7,-2l96 0c2,0 4,1 5,3 1,2 2,4 2,7 0,3 -1,5 -2,7 -1,2 -3,3 -5,3l-91 0 0 10c0,1 0,3 1,4 1,1 2,1 3,1l90 0c2,0 4,1 5,3 1,2 2,4 2,7 0,3 -1,5 -2,7 -1,2 -3,3 -5,3l-90 0 0 0zm-17 -78c0,-3 1,-5 2,-7 1,-2 3,-3 5,-3l101 0c2,0 4,1 5,3 1,2 2,4 2,7 0,3 -1,5 -2,7 -1,2 -3,3 -5,3l-101 0c-2,0 -4,-1 -5,-3 -1,-2 -2,-4 -2,-7z"/>
  <path class="fil0" d="M1194 800c1,-2 3,-3 5,-3 2,0 4,1 5,3 1,2 2,4 2,7l0 58c0,5 -1,10 -4,14 -3,4 -6,6 -10,6 -1,0 -3,0 -4,-1 -1,-1 -2,-1 -3,-2l-65 -56c-2,-1 -3,-3 -4,-4 -1,-1 -2,-1 -3,-1 -1,0 -2,1 -3,4 0,3 -1,6 -1,11l0 39c0,3 -1,5 -2,7 -1,2 -3,3 -5,3 -2,0 -4,-1 -5,-3 -1,-2 -2,-4 -2,-7l0 -58c0,-5 1,-10 4,-14 3,-4 6,-6 10,-6 1,0 3,0 4,1 1,1 2,1 3,2l65 56c2,1 3,3 4,4 1,1 2,1 3,1 1,0 2,-1 3,-4 0,-3 1,-6 1,-11l0 -40c0,-3 1,-5 2,-7z"/>
  <path class="fil0" d="M1329 800c1,2 2,4 2,7 0,3 -1,5 -2,7 -1,2 -3,3 -5,3l-42 0 0 59c0,3 -1,5 -2,7 -1,2 -3,3 -5,3 -2,0 -4,-1 -5,-3 -1,-2 -2,-4 -2,-7l0 -59 -43 0c-2,0 -3,-1 -4,-3 -1,-2 -2,-4 -2,-7 0,-3 1,-5 2,-7 1,-2 3,-3 5,-3l98 0c2,0 4,1 5,3z"/>
  <path class="fil0" d="M1360 849c0,3 1,6 2,8 1,2 3,4 5,6 2,2 5,3 8,3l57 0c3,0 6,-1 8,-3 2,-2 4,-4 5,-6 1,-2 2,-5 2,-8 0,-3 1,-6 1,-8l0 -34c0,-3 1,-5 2,-7 1,-2 3,-3 5,-3 2,0 4,1 5,3 1,2 2,4 2,7l0 34c0,5 -1,10 -2,15 -1,5 -3,10 -5,14 -2,4 -5,8 -8,10 -3,3 -7,4 -11,4l-65 0c-4,0 -7,-2 -10,-5 -3,-3 -6,-6 -8,-10 -2,-4 -4,-9 -5,-14 -1,-5 -2,-10 -2,-15l0 -34c0,-3 1,-5 2,-7 1,-2 3,-3 5,-3 2,0 4,1 5,3 1,2 2,4 2,7l0 34c0,2 0,5 1,8z"/>
  <path class="fil0" d="M1575 858c3,3 5,5 8,9 1,1 2,2 3,4 1,1 1,3 1,5 0,3 -1,5 -2,7 -1,2 -3,3 -5,3 -2,0 -3,-1 -5,-3 -4,-4 -8,-8 -12,-12 -4,-4 -8,-7 -13,-10 -4,-3 -9,-5 -14,-7 -5,-2 -10,-3 -15,-3l-28 0c-1,0 -2,1 -3,2 -1,1 -1,3 -1,5l0 17c0,3 -1,5 -2,7 -1,2 -3,3 -5,3 -2,0 -4,-1 -5,-3 -1,-2 -2,-4 -2,-7l0 -19c0,-3 0,-6 1,-9 1,-3 2,-6 4,-8 2,-2 3,-4 5,-5 2,-1 4,-2 7,-2l75 0c1,0 3,-1 4,-2 1,-1 2,-3 2,-5 0,-2 -1,-4 -2,-5 -1,-1 -2,-2 -4,-2l-86 0c-2,0 -4,-1 -5,-3 -1,-2 -2,-4 -2,-7 0,-3 1,-5 2,-7 1,-2 3,-3 5,-3l85 0c3,0 5,1 7,2 2,1 4,3 6,6 2,2 3,5 4,8 1,3 2,7 2,10 0,4 -1,7 -2,10 -1,3 -2,6 -4,8 -2,2 -4,4 -6,6 -2,1 -5,2 -7,2l-1 0c3,2 5,5 8,7z"/>
  <path class="fil0" d="M1618 885c-2,0 -4,-1 -6,-2 -2,-1 -4,-3 -6,-5 -2,-2 -3,-5 -4,-8 -1,-3 -2,-7 -2,-11l0 -18c0,-4 1,-6 2,-7 1,-1 4,-2 7,-2l96 0c2,0 4,1 5,3 1,2 2,4 2,7 0,3 -1,5 -2,7 -1,2 -3,3 -5,3l-91 0 0 10c0,1 0,3 1,4 1,1 2,1 3,1l90 0c2,0 4,1 5,3 1,2 2,4 2,7 0,3 -1,5 -2,7 -1,2 -3,3 -5,3l-90 0 0 0zm-17 -78c0,-3 1,-5 2,-7 1,-2 3,-3 5,-3l101 0c2,0 3,1 5,3 1,2 2,4 2,7 0,3 -1,5 -2,7 -1,2 -3,3 -5,3l-101 0c-2,0 -4,-1 -5,-3 -1,-2 -2,-4 -2,-7z"/>
  <path class="fil0" d="M1741 849c-2,-1 -4,-3 -6,-6 -2,-2 -3,-5 -4,-8 -1,-3 -1,-7 -1,-10 0,-4 0,-7 1,-10 1,-3 2,-6 4,-8 2,-2 4,-4 6,-6 2,-1 5,-2 7,-2l86 0c2,0 4,1 5,3 1,2 2,4 2,7 0,3 -1,5 -2,7 -1,2 -3,3 -5,3l-87 0c-1,0 -3,1 -4,2 -1,1 -2,3 -2,5 0,2 1,4 2,5 1,1 2,2 4,2l79 0c3,0 5,1 8,2 2,1 4,3 6,6 2,2 3,5 4,9 1,3 1,7 1,11 0,4 -1,7 -1,10 -1,3 -2,6 -4,8 -2,2 -4,4 -6,6 -2,1 -5,2 -8,2l-86 0c-2,0 -4,-1 -5,-3 -1,-2 -2,-4 -2,-7 0,-3 1,-5 2,-7 1,-2 3,-3 5,-3l87 0c1,0 3,-1 4,-2 1,-1 2,-3 2,-5 0,-2 -1,-4 -2,-5 -1,-1 -2,-2 -4,-2l-79 0c-3,0 -5,-1 -7,-2z"/>
  <line class="fil1 str0" x1="7" y1="764" x2="1839" y2= "764" />
 </g>
</svg>
