<?xml version="1.0" encoding="UTF-8" standalone="no"?>
<svg
   xmlns:dc="http://purl.org/dc/elements/1.1/"
   xmlns:cc="http://creativecommons.org/ns#"
   xmlns:rdf="http://www.w3.org/1999/02/22-rdf-syntax-ns#"
   xmlns:svg="http://www.w3.org/2000/svg"
   xmlns="http://www.w3.org/2000/svg"
   xmlns:sodipodi="http://sodipodi.sourceforge.net/DTD/sodipodi-0.dtd"
   xmlns:inkscape="http://www.inkscape.org/namespaces/inkscape"
   width="177.333"
   height="85.333"
   viewBox="0 0 1847 889"
   shape-rendering="geometricPrecision"
   text-rendering="geometricPrecision"
   image-rendering="optimizeQuality"
   fill-rule="evenodd"
   clip-rule="evenodd"
   version="1.1"
   id="svg835"
   sodipodi:docname="EVonly_black.svg"
   inkscape:version="0.92.4 (5da689c313, 2019-01-14)">
  <metadata
     id="metadata839">
    <rdf:RDF>
      <cc:Work
         rdf:about="">
        <dc:format>image/svg+xml</dc:format>
        <dc:type
           rdf:resource="http://purl.org/dc/dcmitype/StillImage" />
        <dc:title></dc:title>
      </cc:Work>
    </rdf:RDF>
  </metadata>
  <sodipodi:namedview
     pagecolor="#ffffff"
     bordercolor="#666666"
     borderopacity="1"
     objecttolerance="10"
     gridtolerance="10"
     guidetolerance="10"
     inkscape:pageopacity="0"
     inkscape:pageshadow="2"
     inkscape:window-width="1920"
     inkscape:window-height="1027"
     id="namedview837"
     showgrid="false"
     inkscape:zoom="1.6184242"
     inkscape:cx="68.894177"
     inkscape:cy="190.9589"
     inkscape:window-x="2680"
     inkscape:window-y="-8"
     inkscape:window-maximized="1"
     inkscape:current-layer="Layer_x0020_1" />
  <defs
     id="defs826">
    <style
       id="style824">.fil0{fill:#282828;fill-rule:nonzero}</style>
  </defs>
  <g
     id="Layer_x0020_1">
    <path
       class="fil0"
       d="m 145.43713,821.11984 c -17,0 -33,-5 -50.000003,-15 -16.999995,-10 -31.999995,-24 -43.999995,-42 -13,-18 -24,-40 -32,-66 -8,-26 -13.0000003,-55 -13.0000003,-87 v -144 c 0,-29 6.0000003,-48 18.0000003,-58 12,-10 30,-14 55,-14 H 843.43713 c 15,0 28,7 39,22 11,15 16,33 16,55 0,21 -5,40 -16,55 -11,15 -24,22 -39,22 h -728 v 79 c 0,11 3,20 10,28 6,8 15,12 26,12 h 718 c 15,0 28,7 39,22 11,15 16,33 16,55 0,21 -5,40 -16,55 -11,15 -24,22 -39,22 h -723 z"
       id="path828"
       inkscape:connector-curvature="0"
       style="fill:#282828;fill-rule:nonzero" />
    <path
       d="M 1059.4371,244.11984 H 61.437132 c -15,0 -28,-7 -39,-22 -11,-15 -16.0000003,-33 -16.0000003,-55 0,-21 5.0000003,-40 16.0000003,-55 11,-15.000001 24,-22.000001 39,-22.000001 H 1092.4371 c 18,0 33,10.000001 43,30.000001 l 265,499 c 5,9 12,18 20,28 8,10 16,15 24,15 8,0 17,-5 25,-15 8,-10 14,-20 19,-28 l 268,-500 c 11,-19 25,-29.000001 42,-29.000001 15,0 34,7 45,22.000001 11,15 16,33 16,55 0,19 -4,35 -11,47 l -1,2 -276,523 c -14,25 -31,45 -52,60 -21,16 -50,23 -74,23 -23,0 -55,-7 -75,-21 -20,-14 -37,-33 -51,-58 l -261,-499 z"
       id="path5125"
       inkscape:connector-curvature="0" />
  </g>
</svg>
