<?xml version="1.0" standalone="no"?>
<!DOCTYPE svg PUBLIC "-//W3C//DTD SVG 20010904//EN"
 "http://www.w3.org/TR/2001/REC-SVG-20010904/DTD/svg10.dtd">
<svg version="1.0" xmlns="http://www.w3.org/2000/svg"
 width="762.000000pt" height="733.000000pt" viewBox="0 0 762.000000 733.000000"
 preserveAspectRatio="xMidYMid meet">
<metadata>
Created by potrace 1.11, written by Peter Selinger 2001-2013
</metadata>
<g transform="translate(0.000000,733.000000) scale(0.100000,-0.100000)"
fill="#000000" stroke="none">
<g>
<path d="M4065 6997 c-58 -89 -299 -347 -324 -347 -37 0 -56 116 -31 199 5 19
7 37 4 40 -17 17 -156 -96 -370 -301 -66 -63 -138 -131 -161 -152 l-42 -37
-15 29 c-18 35 -86 97 -115 107 -24 7 -37 -2 -306 -230 -356 -302 -658 -587
-725 -685 -92 -136 -156 -316 -180 -510 -19 -159 -9 -426 23 -585 11 -55 14
-60 37 -57 29 3 65 35 88 77 14 25 17 66 17 240 1 249 18 341 88 488 119 247
372 507 575 589 50 20 74 23 202 23 l145 0 140 -47 c330 -111 522 -152 715
-153 l135 0 100 44 c55 24 154 62 220 85 l120 41 175 0 c164 -1 180 -2 248
-27 141 -51 268 -145 370 -274 46 -59 73 -84 100 -94 145 -52 322 -244 403
-438 45 -108 59 -186 68 -379 6 -134 12 -177 25 -198 13 -20 20 -23 36 -15 50
27 78 368 45 545 -47 255 -173 497 -387 742 -42 48 -298 311 -568 583 l-492
495 -25 -82 c-14 -46 -29 -83 -32 -83 -3 0 -14 32 -23 70 -9 39 -33 103 -52
143 -33 69 -152 247 -165 247 -3 0 -33 -42 -66 -93z"/>
</g>
<g>
<path d="M3843 4344 c-10 -25 -10 -223 0 -248 14 -34 17 -11 7 50 -6 38 -6 88
-1 135 10 75 8 97 -6 63z"/>
</g>
<g>
<path d="M3474 4124 c-22 -33 -10 -72 29 -94 24 -13 30 -13 54 0 67 37 48 120
-27 120 -31 0 -43 -5 -56 -26z"/>
</g>
<g>
<path d="M4117 4132 c-39 -43 -8 -112 50 -112 53 0 84 78 45 113 -25 22 -75
21 -95 -1z"/>
</g>
<g>
<path d="M5210 2922 c-183 -181 -390 -317 -627 -411 -302 -119 -437 -146 -753
-146 -260 0 -344 11 -525 66 -354 107 -619 257 -851 481 l-50 49 -34 -48 c-19
-26 -90 -103 -158 -170 l-124 -123 7 -59 c4 -33 12 -83 18 -111 l12 -52 88
-38 c48 -21 134 -69 190 -107 116 -78 119 -83 89 -178 -16 -54 -17 -65 -5
-110 19 -69 11 -244 -13 -310 -12 -30 -39 -70 -69 -101 -61 -61 -73 -111 -32
-133 54 -29 54 -98 0 -88 -27 5 -29 -1 -9 -29 9 -11 35 -23 68 -29 l53 -10 0
-80 c0 -75 2 -84 37 -140 21 -33 38 -70 38 -82 0 -22 -37 -129 -71 -204 -19
-41 -29 -50 -80 -72 -39 -17 -59 -31 -59 -43 0 -19 15 -18 615 5 128 5 326 5
445 1 118 -5 440 -13 715 -19 275 -6 664 -15 865 -21 368 -11 430 -8 430 16 0
19 -13 25 -128 60 l-104 31 -23 68 c-23 64 -23 70 -9 109 9 22 18 49 21 59 3
11 -2 51 -12 91 -14 57 -16 85 -9 141 8 62 12 70 32 73 22 3 21 5 -17 43 -46
47 -77 106 -89 171 -5 25 -19 58 -31 73 -26 34 -29 114 -4 155 19 32 80 70
114 70 13 0 34 8 46 18 l22 17 -35 94 c-37 98 -73 244 -74 296 0 28 8 35 98
86 93 54 144 75 315 135 42 14 77 31 77 36 0 5 -7 22 -15 38 -8 16 -12 35 -9
44 11 28 -36 108 -117 198 -45 50 -106 129 -135 174 -30 46 -55 83 -57 82 -1
-1 -31 -31 -67 -66z"/>
</g>
<g>
<path d="M3400 2966 c0 -29 38 -82 91 -127 62 -51 340 -239 354 -239 4 0 22
13 41 29 18 16 55 42 81 57 108 61 162 100 231 168 39 39 72 76 72 82 0 7 -19
15 -42 18 -60 9 -828 20 -828 12z m237 -24 c9 -6 9 -18 1 -50 l-10 -42 -49 0
c-41 0 -50 4 -67 28 -23 33 -33 58 -25 66 9 9 136 7 150 -2z m203 -34 c0 -24
-4 -48 -8 -54 -12 -18 -61 -26 -118 -18 -54 6 -54 7 -54 41 0 65 11 73 100 73
l80 0 0 -42z m207 28 c8 -8 -5 -48 -27 -83 -19 -32 -21 -33 -90 -33 l-70 0 0
66 0 67 91 -6 c50 -3 93 -8 96 -11z m168 -6 c9 -14 -31 -68 -63 -84 -15 -7
-46 -17 -69 -21 -51 -8 -54 1 -21 70 l22 45 62 0 c35 0 66 -5 69 -10z"/>
</g>
<g>
<path d="M2247 1300 c-3 -10 -19 -28 -36 -38 -27 -16 -29 -21 -17 -31 12 -10
19 -8 35 8 12 12 21 28 21 36 0 15 20 22 20 8 0 -5 7 -16 15 -26 17 -24 55
-14 55 14 0 17 -3 18 -22 8 -19 -10 -25 -8 -44 14 -20 24 -22 24 -27 7z"/>
</g>
</g>
</svg>
