<?xml version="1.0" standalone="no"?>
<!DOCTYPE svg PUBLIC "-//W3C//DTD SVG 20010904//EN"
 "http://www.w3.org/TR/2001/REC-SVG-20010904/DTD/svg10.dtd">
<svg version="1.0" xmlns="http://www.w3.org/2000/svg"
 width="54.000000pt" height="29.000000pt" viewBox="0 0 54.000000 29.000000"
 preserveAspectRatio="xMidYMid meet">
<metadata>
Created by potrace 1.11, written by Peter Selinger 2001-2013
</metadata>
<g transform="translate(0.000000,29.000000) scale(0.100000,-0.100000)"
fill="#000000" stroke="none">
<path fill="#000000" stroke="none" d="M219 252 c-19 -20 -68 -75 -108 -122
-41 -47 -84 -95 -95 -107 l-19 -23 36 0 c33 0 42 8 134 114 54 63 101 115 104
115 3 1 50 -50 105 -113 87 -102 103 -115 132 -115 17 -1 32 2 32 7 -1 4 -21
30 -46 57 -25 28 -79 89 -121 138 -87 101 -103 106 -154 49z"/>
</g>
</svg>
