<?xml version="1.0" standalone="no"?>
<!DOCTYPE svg PUBLIC "-//W3C//DTD SVG 20010904//EN"
 "http://www.w3.org/TR/2001/REC-SVG-20010904/DTD/svg10.dtd">
<svg version="1.0" xmlns="http://www.w3.org/2000/svg"
 width="48.000000pt" height="29.000000pt" viewBox="0 0 48.000000 29.000000"
 preserveAspectRatio="xMidYMid meet">
<metadata>
Created by potrace 1.11, written by Peter Selinger 2001-2013
</metadata>
<g transform="translate(0.000000,29.000000) scale(0.100000,-0.100000)"
fill="#000000" stroke="none">
<path fill="#000000" stroke="none" d="M0 145 l0 -145 215 0 216 0 25 26 c22
21 25 31 20 62 -8 46 -8 58 0 104 5 33 2 41 -24 68 l-30 30 -211 0 -211 0 0
-145z"/>
<path fill="#ffffff" stroke="none" d="M424 214 c15 -39 -9 -44 -195 -44
l-179 0 0 30 0 30 184 0 c161 0 185 -2 190 -16z"/>
<path fill="#ffffff" stroke="none" d="M414 104 c19 -19 20 -26 4 -42 -8 -8
-65 -12 -190 -12 l-178 0 0 35 0 35 174 0 c145 0 177 -3 190 -16z"/>
</g>
</svg>
