<?xml version="1.0" standalone="no"?>
<!DOCTYPE svg PUBLIC "-//W3C//DTD SVG 20010904//EN"
 "http://www.w3.org/TR/2001/REC-SVG-20010904/DTD/svg10.dtd">
<svg version="1.0" xmlns="http://www.w3.org/2000/svg"
 width="48.000000pt" height="29.000000pt" viewBox="0 0 48.000000 29.000000"
 preserveAspectRatio="xMidYMid meet">
<metadata>
Created by potrace 1.11, written by Peter Selinger 2001-2013
</metadata>
<g transform="translate(0.000000,29.000000) scale(0.100000,-0.100000)"
fill="#000000" stroke="none">
<path fill="#000000" stroke="none" d="M0 260 l0 -30 188 0 c183 0 189 -1 209
-22 29 -33 35 -57 22 -95 -18 -55 -47 -63 -219 -63 l-150 0 0 70 c0 68 -1 70
-25 70 -25 0 -25 0 -25 -95 l0 -95 188 0 c169 0 190 2 220 20 98 60 94 201 -8
252 -30 15 -64 18 -217 18 l-183 0 0 -30z"/>
</g>
</svg>
