<?xml version="1.0" standalone="no"?>
<!DOCTYPE svg PUBLIC "-//W3C//DTD SVG 20010904//EN"
 "http://www.w3.org/TR/2001/REC-SVG-20010904/DTD/svg10.dtd">
<svg version="1.0" xmlns="http://www.w3.org/2000/svg"
 width="48.000000pt" height="29.000000pt" viewBox="0 0 48.000000 29.000000"
 preserveAspectRatio="xMidYMid meet">
<metadata>
Created by potrace 1.11, written by Peter Selinger 2001-2013
</metadata>
<g transform="translate(0.000000,29.000000) scale(0.100000,-0.100000)"
fill="#000000" stroke="none">
<path fill="#000000" stroke="none" d="M45 278 c-39 -21 -45 -39 -45 -135 0
-86 2 -96 25 -118 24 -25 26 -25 215 -25 189 0 191 0 215 25 21 20 25 34 25
85 l0 60 -100 0 -100 0 0 -25 c0 -24 2 -25 75 -25 72 0 75 -1 75 -23 0 -43
-14 -47 -191 -47 -131 0 -169 3 -178 14 -7 9 -11 42 -9 88 l3 73 179 3 c113 1
183 -1 190 -8 5 -5 20 -10 33 -10 30 0 30 24 -2 55 -24 25 -26 25 -207 25
-113 0 -191 -5 -203 -12z"/>
</g>
</svg>
