<?xml version="1.0" standalone="no"?>
<!DOCTYPE svg PUBLIC "-//W3C//DTD SVG 20010904//EN"
 "http://www.w3.org/TR/2001/REC-SVG-20010904/DTD/svg10.dtd">
<svg version="1.0" xmlns="http://www.w3.org/2000/svg"
 width="48.000000pt" height="29.000000pt" viewBox="0 0 48.000000 29.000000"
 preserveAspectRatio="xMidYMid meet">
<metadata>
Created by potrace 1.11, written by Peter Selinger 2001-2013
</metadata>
<g transform="translate(0.000000,29.000000) scale(0.100000,-0.100000)"
fill="#000000" stroke="none">
<path fill="#000000" stroke="none" d="M0 145 l0 -145 25 0 c24 0 25 3 25 61
l0 60 159 -3 c153 -3 161 -4 185 -27 14 -13 29 -39 32 -58 5 -26 11 -33 30
-33 19 0 24 5 24 24 0 34 -17 77 -41 102 -18 19 -18 22 -4 34 25 21 45 66 45
100 0 25 -4 30 -23 30 -19 0 -25 -8 -35 -45 -18 -68 -40 -75 -222 -75 l-150 0
0 60 c0 57 -1 60 -25 60 l-25 0 0 -145z"/>
</g>
</svg>
