<?xml version="1.0" standalone="no"?>
<!DOCTYPE svg PUBLIC "-//W3C//DTD SVG 20010904//EN"
 "http://www.w3.org/TR/2001/REC-SVG-20010904/DTD/svg10.dtd">
<svg version="1.0" xmlns="http://www.w3.org/2000/svg"
 width="50.000000pt" height="29.000000pt" viewBox="0 0 50.000000 29.000000"
 preserveAspectRatio="xMidYMid meet">
<metadata>
Created by potrace 1.11, written by Peter Selinger 2001-2013
</metadata>
<g transform="translate(0.000000,29.000000) scale(0.100000,-0.100000)"
fill="#000000" stroke="none">
<path fill="#000000" stroke="none" d="M0 145 l0 -145 25 0 c24 0 24 1 27 105
l3 105 95 -85 c52 -47 97 -85 100 -85 3 0 48 38 100 84 l95 85 3 -105 c3 -103
3 -104 27 -104 l25 0 0 145 0 145 -24 0 c-21 0 -66 -35 -193 -153 l-32 -30
-102 92 c-68 61 -109 91 -125 91 l-24 0 0 -145z"/>
</g>
</svg>
