<?xml version="1.0" standalone="no"?>
<!DOCTYPE svg PUBLIC "-//W3C//DTD SVG 20010904//EN"
 "http://www.w3.org/TR/2001/REC-SVG-20010904/DTD/svg10.dtd">
<svg version="1.0" xmlns="http://www.w3.org/2000/svg"
 width="47.000000pt" height="29.000000pt" viewBox="0 0 47.000000 29.000000"
 preserveAspectRatio="xMidYMid meet">
<metadata>
Created by potrace 1.11, written by Peter Selinger 2001-2013
</metadata>
<g transform="translate(0.000000,29.000000) scale(0.100000,-0.100000)"
fill="#000000" stroke="none">
<path fill="#000000" stroke="none" d="M0 145 l0 -145 25 0 25 0 0 115 c0 63
2 115 5 115 3 0 83 -52 178 -115 131 -88 180 -115 204 -115 l33 0 0 145 c0
138 -1 145 -20 145 -18 0 -20 -8 -22 -120 l-3 -120 -180 120 c-138 92 -188
120 -212 120 l-33 0 0 -145z"/>
</g>
</svg>
