<?xml version="1.0" standalone="no"?>
<!DOCTYPE svg PUBLIC "-//W3C//DTD SVG 20010904//EN"
 "http://www.w3.org/TR/2001/REC-SVG-20010904/DTD/svg10.dtd">
<svg version="1.0" xmlns="http://www.w3.org/2000/svg"
 width="48.000000pt" height="29.000000pt" viewBox="0 0 48.000000 29.000000"
 preserveAspectRatio="xMidYMid meet">
<metadata>
Created by potrace 1.11, written by Peter Selinger 2001-2013
</metadata>
<g transform="translate(0.000000,29.000000) scale(0.100000,-0.100000)"
fill="#000000" stroke="none">
<path fill="#000000" stroke="none" d="M43 280 c-34 -14 -43 -42 -43 -140 0
-83 2 -93 25 -115 24 -25 26 -25 215 -25 189 0 191 0 215 25 23 22 25 32 25
115 0 88 -1 93 -29 121 l-29 29 -179 -1 c-98 0 -188 -4 -200 -9z"/>
<path fill="#ffffff" stroke="none" d="M424 214 c11 -28 6 -140 -6 -152 -17
-17 -339 -17 -356 0 -13 13 -17 149 -5 161 3 4 86 7 184 7 152 0 178 -2 183
-16z"/>
</g>
</svg>
