<?xml version="1.0" standalone="no"?>
<!DOCTYPE svg PUBLIC "-//W3C//DTD SVG 20010904//EN"
 "http://www.w3.org/TR/2001/REC-SVG-20010904/DTD/svg10.dtd">
<svg version="1.0" xmlns="http://www.w3.org/2000/svg"
 width="48.000000pt" height="33.000000pt" viewBox="0 0 48.000000 33.000000"
 preserveAspectRatio="xMidYMid meet">
<metadata>
Created by potrace 1.11, written by Peter Selinger 2001-2013
</metadata>
<g transform="translate(0.000000,33.000000) scale(0.100000,-0.100000)"
fill="#000000" stroke="none">
<path fill="#000000" stroke="none" d="M45 318 c-39 -21 -45 -39 -45 -135 0
-86 2 -96 25 -118 24 -24 28 -25 184 -25 151 0 160 -1 166 -20 5 -14 15 -20
37 -20 26 0 30 3 25 20 -3 14 3 29 19 45 22 22 24 32 24 115 0 88 -1 93 -29
121 l-29 29 -179 0 c-109 0 -186 -5 -198 -12z"/>
<path fill="#ffffff" stroke="none" d="M424 254 c3 -9 6 -44 6 -79 0 -65 -14
-92 -32 -61 -5 9 -21 16 -35 16 -20 0 -24 -4 -20 -20 5 -19 0 -20 -132 -20
-93 0 -141 4 -149 12 -13 13 -17 149 -5 161 3 4 86 7 184 7 152 0 178 -2 183
-16z"/>
</g>
</svg>
