<?xml version="1.0" standalone="no"?>
<!DOCTYPE svg PUBLIC "-//W3C//DTD SVG 20010904//EN"
 "http://www.w3.org/TR/2001/REC-SVG-20010904/DTD/svg10.dtd">
<svg version="1.0" xmlns="http://www.w3.org/2000/svg"
 width="48.000000pt" height="29.000000pt" viewBox="0 0 48.000000 29.000000"
 preserveAspectRatio="xMidYMid meet">
<metadata>
Created by potrace 1.11, written by Peter Selinger 2001-2013
</metadata>
<g transform="translate(0.000000,29.000000) scale(0.100000,-0.100000)"
fill="#000000" stroke="none">
<path fill="#000000" stroke="none" d="M45 278 c-51 -29 -61 -93 -20 -133 24
-25 27 -25 199 -25 145 0 177 -3 190 -16 19 -19 20 -26 4 -42 -9 -9 -69 -12
-210 -12 l-198 0 0 -25 0 -25 210 0 c211 0 211 0 235 25 40 39 28 111 -22 134
-14 7 -90 11 -192 11 -137 0 -171 3 -181 15 -7 8 -10 22 -6 30 4 13 37 15 211
15 l205 0 0 30 0 30 -202 0 c-134 -1 -210 -5 -223 -12z"/>
</g>
</svg>
