<?xml version="1.0" standalone="no"?>
<!DOCTYPE svg PUBLIC "-//W3C//DTD SVG 20010904//EN"
 "http://www.w3.org/TR/2001/REC-SVG-20010904/DTD/svg10.dtd">
<svg version="1.0" xmlns="http://www.w3.org/2000/svg"
 width="48.000000pt" height="29.000000pt" viewBox="0 0 48.000000 29.000000"
 preserveAspectRatio="xMidYMid meet">
<metadata>
Created by potrace 1.11, written by Peter Selinger 2001-2013
</metadata>
<g transform="translate(0.000000,29.000000) scale(0.100000,-0.100000)"
fill="#000000" stroke="none">
<path fill="#000000" stroke="none" d="M0 170 c0 -115 1 -122 25 -145 24 -25
26 -25 215 -25 189 0 191 0 215 25 24 23 25 30 25 145 l0 120 -25 0 -25 0 0
-108 c0 -71 -4 -112 -12 -120 -17 -17 -339 -17 -356 0 -8 8 -12 49 -12 120 l0
108 -25 0 -25 0 0 -120z"/>
</g>
</svg>
