<?xml version="1.0" standalone="no"?>
<!DOCTYPE svg PUBLIC "-//W3C//DTD SVG 20010904//EN"
 "http://www.w3.org/TR/2001/REC-SVG-20010904/DTD/svg10.dtd">
<svg version="1.0" xmlns="http://www.w3.org/2000/svg"
 width="49.000000pt" height="29.000000pt" viewBox="0 0 49.000000 29.000000"
 preserveAspectRatio="xMidYMid meet">
<metadata>
Created by potrace 1.11, written by Peter Selinger 2001-2013
</metadata>
<g transform="translate(0.000000,29.000000) scale(0.100000,-0.100000)"
fill="#000000" stroke="none">
<path fill="#000000" stroke="none" d="M6 281 c5 -5 50 -38 101 -73 l92 -65
-99 -69 -100 -69 44 -3 c40 -3 52 3 118 49 40 29 78 52 84 52 6 0 44 -23 86
-52 66 -46 80 -52 118 -49 l42 3 -100 69 -100 70 102 70 101 71 -43 3 c-38 3
-51 -3 -121 -52 -44 -31 -82 -56 -85 -56 -3 0 -41 25 -83 55 -66 47 -84 55
-122 55 -27 0 -41 -4 -35 -9z"/>
</g>
</svg>
