<?xml version="1.0" standalone="no"?>
<!DOCTYPE svg PUBLIC "-//W3C//DTD SVG 20010904//EN"
 "http://www.w3.org/TR/2001/REC-SVG-20010904/DTD/svg10.dtd">
<svg version="1.0" xmlns="http://www.w3.org/2000/svg"
 width="49.000000pt" height="29.000000pt" viewBox="0 0 49.000000 29.000000"
 preserveAspectRatio="xMidYMid meet">
<metadata>
Created by potrace 1.11, written by Peter Selinger 2001-2013
</metadata>
<g transform="translate(0.000000,29.000000) scale(0.100000,-0.100000)"
fill="#000000" stroke="none">
<path fill="#000000" stroke="none" d="M0 286 c0 -2 49 -41 110 -86 l110 -82
0 -59 c0 -56 1 -59 25 -59 24 0 25 3 25 58 l0 58 105 78 c58 43 108 82 111 87
3 5 -12 9 -34 9 -31 0 -52 -10 -113 -56 -41 -31 -79 -58 -86 -61 -7 -3 -48 23
-92 56 -67 51 -86 61 -120 61 -23 0 -41 -2 -41 -4z"/>
</g>
</svg>
